<svg width="856" height="643" viewBox="0 0 642 482" xmlns="http://www.w3.org/2000/svg" version="1" baseProfile="tiny"><g fill="none" stroke="#000" fill-rule="evenodd" stroke-linecap="square" stroke-linejoin="bevel" font-weight="400"><g stroke-linecap="round" stroke-linejoin="round" font-family="Ubuntu" font-size="11"><path d="M115 452h3M551 452h-3" stroke-width="1.00313"/></g><text fill="#000" stroke="none" transform="translate(97 456) scale(1.00313)" font-family="Sans" font-size="9">-1</text><g stroke-linecap="round" stroke-linejoin="round" font-family="Ubuntu" font-size="11"><path d="M115 343h3M551 343h-3" stroke-width="1.00313"/></g><text fill="#000" stroke="none" transform="translate(85 347) scale(1.00313)" font-family="Sans" font-size="9">-0.5</text><g stroke-linecap="round" stroke-linejoin="round" font-family="Ubuntu" font-size="11"><path d="M115 233h3M551 233h-3" stroke-width="1.00313"/></g><text fill="#000" stroke="none" transform="translate(97 238) scale(1.00313)" font-family="Sans" font-size="9">0</text><g stroke-linecap="round" stroke-linejoin="round" font-family="Ubuntu" font-size="11"><path d="M115 124h3M551 124h-3" stroke-width="1.00313"/></g><text fill="#000" stroke="none" transform="translate(85 129) scale(1.00313)" font-family="Sans" font-size="9">0.5</text><g stroke-linecap="round" stroke-linejoin="round" font-family="Ubuntu" font-size="11"><path d="M115 16h3M551 16h-3" stroke-width="1.00313"/></g><text fill="#000" stroke="none" transform="translate(97 20) scale(1.00313)" font-family="Sans" font-size="9">1</text><g stroke-linecap="round" stroke-linejoin="round" font-family="Ubuntu" font-size="11"><path d="M115 452v-3M115 16v3" stroke-width="1.00313"/></g><text fill="#000" stroke="none" transform="translate(110 471) scale(1.00313)" font-family="Sans" font-size="9">-1</text><g stroke-linecap="round" stroke-linejoin="round" font-family="Ubuntu" font-size="11"><path d="M224 452v-3M224 16v3" stroke-width="1.00313"/></g><text fill="#000" stroke="none" transform="translate(213 471) scale(1.00313)" font-family="Sans" font-size="9">-0.5</text><g stroke-linecap="round" stroke-linejoin="round" font-family="Ubuntu" font-size="11"><path d="M334 452v-3M334 16v3" stroke-width="1.00313"/></g><text fill="#000" stroke="none" transform="translate(328 471) scale(1.00313)" font-family="Sans" font-size="9">0</text><g stroke-linecap="round" stroke-linejoin="round" font-family="Ubuntu" font-size="11"><path d="M443 452v-3M443 16v3" stroke-width="1.00313"/></g><text fill="#000" stroke="none" transform="translate(431 471) scale(1.00313)" font-family="Sans" font-size="9">0.5</text><g stroke-linecap="round" stroke-linejoin="round" font-family="Ubuntu" font-size="11"><path d="M551 452v-3M551 16v3" stroke-width="1.00313"/></g><text fill="#000" stroke="none" transform="translate(546 471) scale(1.00313)" font-family="Sans" font-size="9">1</text><path d="M115 16v436h436V16H115" stroke-linecap="round" stroke-linejoin="round" font-family="Ubuntu" font-size="11" stroke-width="1.00313"/><path d="M367 205l13-22 11 21-24 1" stroke="#9400d3" stroke-linecap="round" stroke-linejoin="round" font-family="Ubuntu" font-size="11" stroke-width="1.00313"/><path d="M380 183l25 3-14 18-11-21M414 206l-14 18-9-20 23 2M391 204l-14 29-10-28 24-1M367 205l-7-38 20 16-13 22" stroke="#9400d3" stroke-linecap="round" stroke-linejoin="round" font-family="Ubuntu" font-size="11" stroke-width="1.00313"/><path d="M380 183l16-31 9 34-25-3M400 224l-23 9 14-29 9 20M405 186l9 20-23-2 14-18M367 205l-26-15 19-23 7 38" stroke="#9400d3" stroke-linecap="round" stroke-linejoin="round" font-family="Ubuntu" font-size="11" stroke-width="1.00313"/><path d="M360 167l36-15-16 31-20-16M405 186l21-5-12 25-9-20" stroke="#9400d3" stroke-linecap="round" stroke-linejoin="round" font-family="Ubuntu" font-size="11" stroke-width="1.00313"/><path d="M427 155l-1 26-21 5 22-31M424 243l-29 3 5-22 24 19" stroke="#9400d3" stroke-linecap="round" stroke-linejoin="round" font-family="Ubuntu" font-size="11" stroke-width="1.00313"/><path d="M400 224l-5 22-18-13 23-9M424 243l-24-19 14-18 10 37M350 142l25-1-15 26-10-25" stroke="#9400d3" stroke-linecap="round" stroke-linejoin="round" font-family="Ubuntu" font-size="11" stroke-width="1.00313"/><path d="M360 167l15-26 21 11-36 15M321 166l29-24 10 25-39-1M417 136l10 19-31-3 21-16M396 152l31 3-22 31-9-34M447 225l-23 18-10-37 33 19M341 190l-20-24 39 1-19 23M395 246l-28 15 10-28 18 13" stroke="#9400d3" stroke-linecap="round" stroke-linejoin="round" font-family="Ubuntu" font-size="11" stroke-width="1.00313"/><path d="M341 190l-30 6 10-30 20 24M402 279l-35-18 28-15 7 33M453 159l-6 32-21-10 27-22" stroke="#9400d3" stroke-linecap="round" stroke-linejoin="round" font-family="Ubuntu" font-size="11" stroke-width="1.00313"/><path d="M426 181l21 10-33 15 12-25M381 114l15 38-21-11 6-27" stroke="#9400d3" stroke-linecap="round" stroke-linejoin="round" font-family="Ubuntu" font-size="11" stroke-width="1.00313"/><path d="M381 114l36 22-21 16-15-38M427 155l26 4-27 22 1-26M447 191v34l-33-19 33-15M298 154l28-20-5 32-23-12M321 166l5-32 24 8-29 24M350 142l31-28-6 27-25 1" stroke="#9400d3" stroke-linecap="round" stroke-linejoin="round" font-family="Ubuntu" font-size="11" stroke-width="1.00313"/><path d="M347 108l34 6-31 28-3-34M445 117l8 42-26-4 18-38M447 191l27 21-27 13v-34M427 276l-25 3 22-36 3 33" stroke="#9400d3" stroke-linecap="round" stroke-linejoin="round" font-family="Ubuntu" font-size="11" stroke-width="1.00313"/><path d="M424 243l-22 36-7-33 29-3M364 297l-23-21 26-15-3 36M311 196l-21-20 31-10-10 30" stroke="#9400d3" stroke-linecap="round" stroke-linejoin="round" font-family="Ubuntu" font-size="11" stroke-width="1.00313"/><path d="M292 218l-2-42 21 20-19 22M466 245l-22 15 3-35 19 20" stroke="#9400d3" stroke-linecap="round" stroke-linejoin="round" font-family="Ubuntu" font-size="11" stroke-width="1.00313"/><path d="M447 225l-3 35-20-17 23-18M290 176l8-22 23 12-31 10M381 114h37l-1 22-36-22M417 136l28-19-18 38-10-19" stroke="#9400d3" stroke-linecap="round" stroke-linejoin="round" font-family="Ubuntu" font-size="11" stroke-width="1.00313"/><path d="M444 260l-17 16-3-33 20 17M331 89l16 19-37-9 21-10M326 134l21-26 3 34-24-8M381 114l29-26 8 26h-37M479 181l-5 31-27-21 32-10M474 212l-8 33-19-20 27-13M450 290l-31 12 8-26 23 14M292 218l-26-7 24-35 2 42M389 298l-22-37 35 18-13 19" stroke="#9400d3" stroke-linecap="round" stroke-linejoin="round" font-family="Ubuntu" font-size="11" stroke-width="1.00313"/><path d="M389 298l-25-1 3-36 22 37M341 276l-8 25-22-30 30 5M419 302l-30-4 13-19 17 23M479 154v27l-26-22 26-5" stroke="#9400d3" stroke-linecap="round" stroke-linejoin="round" font-family="Ubuntu" font-size="11" stroke-width="1.00313"/><path d="M453 159l26 22-32 10 6-32M418 114l27 3-28 19 1-22M347 108l36-16-2 22-34-6" stroke="#9400d3" stroke-linecap="round" stroke-linejoin="round" font-family="Ubuntu" font-size="11" stroke-width="1.00313"/><path d="M418 114l30-30-3 33-27-3M445 117l20 20-12 22-8-42M265 273l10-41 17 16-27 25" stroke="#9400d3" stroke-linecap="round" stroke-linejoin="round" font-family="Ubuntu" font-size="11" stroke-width="1.00313"/><path d="M292 248l-17-16 17-14v30M465 137l14 17-26 5 12-22M450 290l-23-14 17-16 6 30M427 276l-8 26-17-23 25-3M349 335l-16-34 31-4-15 38" stroke="#9400d3" stroke-linecap="round" stroke-linejoin="round" font-family="Ubuntu" font-size="11" stroke-width="1.00313"/><path d="M275 232l-9-21 26 7-17 14M264 142l25-21 9 33-34-12M383 92l27-4-29 26 2-22M378 328l-14-31 25 1-11 30M364 297l-31 4 8-25 23 21M311 271l-23-1 4-22 19 23M294 309l-6-39 23 1-17 38M242 235v-24h24l-24 24M310 99l37 9-21 26-16-35M347 108l-1-35 37 19-36 16M398 63l30 10-18 15-12-25" stroke="#9400d3" stroke-linecap="round" stroke-linejoin="round" font-family="Ubuntu" font-size="11" stroke-width="1.00313"/><path d="M289 121l37 13-28 20-9-33M264 142l34 12-8 22-26-34M471 279l-21 11-6-30 27 19M266 211l-6-30 30-5-24 35" stroke="#9400d3" stroke-linecap="round" stroke-linejoin="round" font-family="Ubuntu" font-size="11" stroke-width="1.00313"/><path d="M289 121l21-22 16 35-37-13M514 212l-23 23-17-23h40" stroke="#9400d3" stroke-linecap="round" stroke-linejoin="round" font-family="Ubuntu" font-size="11" stroke-width="1.00313"/><path d="M474 212l17 23-25 10 8-33M466 245l5 34-27-19 22-15M505 187l-31 25 5-31 26 6" stroke="#9400d3" stroke-linecap="round" stroke-linejoin="round" font-family="Ubuntu" font-size="11" stroke-width="1.00313"/><path d="M493 262l-22 17-5-34 27 17M506 157l-1 30-26-6 27-24M260 181l4-39 26 34-30 5M285 82l32-10-7 27-25-17M465 137l21-10-7 27-14-17" stroke="#9400d3" stroke-linecap="round" stroke-linejoin="round" font-family="Ubuntu" font-size="11" stroke-width="1.00313"/><path d="M479 154l27 3-27 24v-27M473 102l13 25-21 10 8-35" stroke="#9400d3" stroke-linecap="round" stroke-linejoin="round" font-family="Ubuntu" font-size="11" stroke-width="1.00313"/><path d="M473 102l-8 35-20-20 28-15M317 72l29 1-15 16-14-17M331 89l15-16 1 35-16-19M406 333l-17-35 30 4-13 31" stroke="#9400d3" stroke-linecap="round" stroke-linejoin="round" font-family="Ubuntu" font-size="11" stroke-width="1.00313"/><path d="M406 333l-28-5 11-30 17 35M406 333l13-31 12 30-25 1M428 73l20 11-38 4 18-15M410 88l38-4-30 30-8-26M491 235l2 27-27-17 25-10" stroke="#9400d3" stroke-linecap="round" stroke-linejoin="round" font-family="Ubuntu" font-size="11" stroke-width="1.00313"/><path d="M515 246l-22 16-2-27 24 11M486 127l20 30-27-3 7-27M398 63l12 25-27 4 15-29M448 84l25 18-28 15 3-33" stroke="#9400d3" stroke-linecap="round" stroke-linejoin="round" font-family="Ubuntu" font-size="11" stroke-width="1.00313"/><path d="M486 127l31-12-11 42-20-30M376 62l22 1-15 29-7-30" stroke="#9400d3" stroke-linecap="round" stroke-linejoin="round" font-family="Ubuntu" font-size="11" stroke-width="1.00313"/><path d="M346 73l30-11 7 30-37-19M528 191l-14 21-9-25 23 4" stroke="#9400d3" stroke-linecap="round" stroke-linejoin="round" font-family="Ubuntu" font-size="11" stroke-width="1.00313"/><path d="M505 187l9 25h-40l31-25M272 299l-7-26 23-3-16 29" stroke="#9400d3" stroke-linecap="round" stroke-linejoin="round" font-family="Ubuntu" font-size="11" stroke-width="1.00313"/><path d="M288 270l-23 3 27-25-4 22M266 211h-24l18-30 6 30M294 309l17-38 22 30-39 8M242 235l24-24 9 21-33 3M260 181l-21-12 25-27-4 39M468 307l-18-17 21-11-3 28M431 332l-12-30 31-12-19 42M310 99l7-27 14 17-21 10M349 36l25 3 2 23-27-26M273 102l37-3-21 22-16-19M316 323l-22-14 39-8-17 22M349 335l15-38 14 31-29 7" stroke="#9400d3" stroke-linecap="round" stroke-linejoin="round" font-family="Ubuntu" font-size="11" stroke-width="1.00313"/><path d="M349 335l-33-12 17-22 16 34M249 256l-7-21 33-3-26 24M245 129l28-27-9 40-19-13M264 142l9-40 16 19-25 21M372 353l-23-18 29-7-6 25M229 193l31-12-18 30-13-18" stroke="#9400d3" stroke-linecap="round" stroke-linejoin="round" font-family="Ubuntu" font-size="11" stroke-width="1.00313"/><path d="M229 193l10-24 21 12-31 12M236 286l13-30 16 17-29 13" stroke="#9400d3" stroke-linecap="round" stroke-linejoin="round" font-family="Ubuntu" font-size="11" stroke-width="1.00313"/><path d="M265 273l-16-17 26-24-10 41M501 302l-33 5 3-28 30 23M454 331l-23 1 19-42 4 41M406 333l-34 20 6-25 28 5M514 212l1 34-24-11 23-23" stroke="#9400d3" stroke-linecap="round" stroke-linejoin="round" font-family="Ubuntu" font-size="11" stroke-width="1.00313"/><path d="M493 262l8 40-30-23 22-17M277 325l-5-26 22 10-17 16" stroke="#9400d3" stroke-linecap="round" stroke-linejoin="round" font-family="Ubuntu" font-size="11" stroke-width="1.00313"/><path d="M294 309l-22-10 16-29 6 39M273 102l12-20 25 17-37 3M239 169l6-40 19 13-25 27" stroke="#9400d3" stroke-linecap="round" stroke-linejoin="round" font-family="Ubuntu" font-size="11" stroke-width="1.00313"/><path d="M273 102l-18-12 30-8-12 20M218 212l11-19 13 18-24 1M222 128l17-22 6 23-23-1M218 212l24-1v24l-24-23M543 172l-15 19-22-34 37 15" stroke="#9400d3" stroke-linecap="round" stroke-linejoin="round" font-family="Ubuntu" font-size="11" stroke-width="1.00313"/><path d="M506 157l22 34-23-4 1-30M514 212l37 21-36 13-1-34M468 307l-14 24-4-41 18 17M394 365l-22-12 34-20-12 32M481 327l-27 4 14-24 13 20M427 357l-21-24 25-1-4 25M349 335l-29 11-4-23 33 12M349 36l27 26-30 11 3-37M376 62l-2-23 24 24-22-1M424 35l27 15-23 23-4-38M476 68l-3 34-25-18 28-16M329 44l17 29-29-1 12-28M476 68l22 22-25 12 3-34M473 102l25-12-12 37-13-25" stroke="#9400d3" stroke-linecap="round" stroke-linejoin="round" font-family="Ubuntu" font-size="11" stroke-width="1.00313"/><path d="M476 68l-28 16 3-34 25 18M350 362l-30-16 29-11 1 27M298 348l-21-23 17-16 4 39M295 46l34-2-12 28-22-26M498 90l19 25-31 12 12-37M208 232l34 3-33 31-1-34" stroke="#9400d3" stroke-linecap="round" stroke-linejoin="round" font-family="Ubuntu" font-size="11" stroke-width="1.00313"/><path d="M208 232l10-20 24 23-34-3M222 128l23 1-6 40-17-41M451 50l-3 34-20-11 23-23M526 276l-25 26-8-40 33 14M517 115l15 28-26 14 11-42M239 106l16-16 18 12-34 4M285 82l10-36 22 26-32 10M239 106l34-4-28 27-6-23M298 348l-4-39 22 14-18 25M272 299l-36-13 29-13 7 26M329 44l20-8-3 37-17-29M424 35l-26 28-3-39 29 11M424 35l4 38-30-10 26-28M501 302l-20 25-13-20 33-5M454 331l-27 26 4-25 23-1M532 143l11 29-37-15 26-14M549 264l-23 12-11-30 34 18" stroke="#9400d3" stroke-linecap="round" stroke-linejoin="round" font-family="Ubuntu" font-size="11" stroke-width="1.00313"/><path d="M515 246l11 30-33-14 22-16M222 128l17 41-33-25 16-16M469 356l-42 1 27-26 15 25M247 312l-11-26 36 13-25 13M491 348l-22 8 12-29 10 21M549 202l-35 10 14-21 21 11M372 353l-22 9-1-27 23 18M320 346l-22 2 18-25 4 23M367 382l-17-20 22-9-5 29M395 24l3 39-24-24 21-15M427 357l-33 8 12-32 21 24" stroke="#9400d3" stroke-linecap="round" stroke-linejoin="round" font-family="Ubuntu" font-size="11" stroke-width="1.00313"/><path d="M206 144l33 25-41 6 8-31M543 172l6 30-21-11 15-19M314 378l-16-30 22-2-6 32M277 325l-30-13 25-13 5 26M333 15l31 2-15 19-16-21M255 64l40-18-10 36-30-18" stroke="#9400d3" stroke-linecap="round" stroke-linejoin="round" font-family="Ubuntu" font-size="11" stroke-width="1.00313"/><path d="M255 64l30 18-30 8V64M209 266l33-31 7 21-40 10M198 175l41-6-10 24-31-18M364 17l10 22-25-3 15-19" stroke="#9400d3" stroke-linecap="round" stroke-linejoin="round" font-family="Ubuntu" font-size="11" stroke-width="1.00313"/><path d="M364 17l31 7-21 15-10-22M264 343l-17-31 30 13-13 18M236 286l-27-20 40-10-13 30M549 202l2 31-37-21 35-10M333 15l16 21-20 8 4-29M198 175l31 18-11 19-20-37M229 82l26 8-16 16-10-24" stroke="#9400d3" stroke-linecap="round" stroke-linejoin="round" font-family="Ubuntu" font-size="11" stroke-width="1.00313"/><path d="M229 82l10 24-28-1 18-23M229 82l26-18v26l-26-8M187 197l11-22 20 37-31-15M198 292l11-26 27 20-38 6M208 232l-21-35 31 15-10 20M481 327l-12 29-15-25 27-4M409 388l-42-6 27-17 15 23M505 329l-24-2 20-25 4 27M543 295l-42 7 25-26 17 19" stroke="#9400d3" stroke-linecap="round" stroke-linejoin="round" font-family="Ubuntu" font-size="11" stroke-width="1.00313"/><path d="M532 324l-27 5-4-27 31 22M551 233l-2 31-34-18 36-13M298 348l-34-5 13-18 21 23M247 312l-25 9 14-35 11 26M282 365l-18-22 34 5-16 17M409 388l-15-23 33-8-18 31M394 365l-27 17 5-29 22 12M350 362l-36 16 6-32 30 16M302 17l27 27-34 2 7-29" stroke="#9400d3" stroke-linecap="round" stroke-linejoin="round" font-family="Ubuntu" font-size="11" stroke-width="1.00313"/><path d="M302 17l31-2-4 29-27-27M211 105l28 1-17 22-11-23M505 329l-14 19-10-21 24 2" stroke="#9400d3" stroke-linecap="round" stroke-linejoin="round" font-family="Ubuntu" font-size="11" stroke-width="1.00313"/><path d="M187 115l24-10 11 23-35-13M187 115l35 13-16 16-19-29M549 264l-6 31-17-19 23-12M505 329l12 22-26-3 14-19M176 231l11-34 21 35-32-1M198 175l-14-32 22 1-8 31M336 392l-22-14 36-16-14 30M314 378l-32-13 16-17 16 30M438 399l-29-11 18-31 11 42M367 382l-31 10 14-30 17 20M460 381l-33-24 42-1-9 25M272 24l30-7-7 29-23-22" stroke="#9400d3" stroke-linecap="round" stroke-linejoin="round" font-family="Ubuntu" font-size="11" stroke-width="1.00313"/><path d="M272 24l23 22-40 18 17-40M543 295l-11 29-31-22 42-7M373 404l-37-12 31-10 6 22M314 378l-24 8-8-21 32 13M233 343l-11-22 25-9-14 31M209 266l-27-13 26-21 1 34M233 343l14-31 17 31h-31M498 376l-29-20 22-8 7 28" stroke="#9400d3" stroke-linecap="round" stroke-linejoin="round" font-family="Ubuntu" font-size="11" stroke-width="1.00313"/><path d="M498 376l-38 5 9-25 29 20M173 166l11-23 14 32-25-9M243 35l29-11-17 40-12-29" stroke="#9400d3" stroke-linecap="round" stroke-linejoin="round" font-family="Ubuntu" font-size="11" stroke-width="1.00313"/><path d="M243 35l12 29-40-14 28-15M222 321l-24-29 38-6-14 35M198 292l-16-39 27 13-11 26M187 197l-14-31 25 9-11 22M182 253l-6-22 32 1-26 21" stroke="#9400d3" stroke-linecap="round" stroke-linejoin="round" font-family="Ubuntu" font-size="11" stroke-width="1.00313"/><path d="M222 321l-26-7 2-22 24 29M240 374l-7-31h31l-24 31M240 374l24-31 18 22-42 9M398 411l-25-7 36-16-11 23" stroke="#9400d3" stroke-linecap="round" stroke-linejoin="round" font-family="Ubuntu" font-size="11" stroke-width="1.00313"/><path d="M409 388l-36 16-6-22 42 6M532 324l-15 27-12-22 27-5M156 204l17-38 14 31-31 7M184 143l3-28 19 29-22-1M211 105l-16-15 34-8-18 23" stroke="#9400d3" stroke-linecap="round" stroke-linejoin="round" font-family="Ubuntu" font-size="11" stroke-width="1.00313"/><path d="M161 143l26-28-3 28h-23M312 404l2-26 22 14-24 12" stroke="#9400d3" stroke-linecap="round" stroke-linejoin="round" font-family="Ubuntu" font-size="11" stroke-width="1.00313"/><path d="M312 404l-22-18 24-8-2 26M451 417l-13-18 22-18-9 36" stroke="#9400d3" stroke-linecap="round" stroke-linejoin="round" font-family="Ubuntu" font-size="11" stroke-width="1.00313"/><path d="M460 381l-22 18-11-42 33 24M215 50l40 14-26 18-14-32M187 115l8-25 16 15-24 10M438 399l-40 12 11-23 29 11M328 420l-16-16 24-12-8 28M517 351l-19 25-7-28 26 3M205 348l-9-34 26 7-17 27M198 292l-37-6 21-33 16 39M151 233l5-29 20 27-25 2M359 423l-23-31 37 12-14 19M290 386l-23 3 15-24 8 21" stroke="#9400d3" stroke-linecap="round" stroke-linejoin="round" font-family="Ubuntu" font-size="11" stroke-width="1.00313"/><path d="M190 68l25-18 14 32-39-14M151 233l25-2 6 22-31-20M176 231l-20-27 31-7-11 34M173 166l-12-23h23l-11 23M168 90l22-22 5 22h-27M291 413l-24-24 23-3 1 27M233 343l-28 5 17-27 11 22M498 376l-22 22-16-17 38-5M438 399l-14 33-26-21 40-12" stroke="#9400d3" stroke-linecap="round" stroke-linejoin="round" font-family="Ubuntu" font-size="11" stroke-width="1.00313"/><path d="M146 172l15-29 12 23-27 6M195 90l-5-22 39 14-34 8M267 389l-27-15 42-9-15 24M395 443l-36-20 39-12-3 32" stroke="#9400d3" stroke-linecap="round" stroke-linejoin="round" font-family="Ubuntu" font-size="11" stroke-width="1.00313"/><path d="M398 411l-39 12 14-19 25 7M312 404l-21 9-1-27 22 18M168 90h27l-8 25-19-25M359 423l-31-3 8-28 23 31M207 378l-2-30 28-5-26 35M146 261l5-28 31 20-36 8M173 306l25-14-2 22-23-8M156 204l-10-32 27-6-17 38M476 398l-25 19 9-36 16 17" stroke="#9400d3" stroke-linecap="round" stroke-linejoin="round" font-family="Ubuntu" font-size="11" stroke-width="1.00313"/><path d="M171 340l2-34 23 8-25 26M328 420l-37-7 21-9 16 16M231 401l-24-23 33-4-9 27" stroke="#9400d3" stroke-linecap="round" stroke-linejoin="round" font-family="Ubuntu" font-size="11" stroke-width="1.00313"/><path d="M240 374l-33 4 26-35 7 31M137 192l9-20 10 32-19-12M150 115l18-25 19 25h-37M173 306l-12-20 37 6-25 14M150 115h37l-26 28-11-28M451 417l-27 15 14-33 13 18M359 423l-26 28-5-31 31 3M161 286l-15-25 36-8-21 33" stroke="#9400d3" stroke-linecap="round" stroke-linejoin="round" font-family="Ubuntu" font-size="11" stroke-width="1.00313"/><path d="M135 218l2-26 19 12-21 14M135 218l21-14-5 29-16-15M135 143l15-28 11 28h-26M135 143h26l-15 29-11-29" stroke="#9400d3" stroke-linecap="round" stroke-linejoin="round" font-family="Ubuntu" font-size="11" stroke-width="1.00313"/><path d="M115 233l20-15 16 15h-36M424 432l-29 11 3-32 26 21M272 443l-5-23 24-7-19 30M124 172h22l-9 20-13-20M124 172l11-29 11 29h-22M173 306l-24 1 12-21 12 20M161 286l-37 9 22-34 15 25M205 348l-34-8 25-26 9 34M231 401l9-27 27 15-36 12M302 449l-11-36 37 7-26 29" stroke="#9400d3" stroke-linecap="round" stroke-linejoin="round" font-family="Ubuntu" font-size="11" stroke-width="1.00313"/><path d="M291 413l-24 7v-31l24 24M183 360l-12-20 34 8-22 12M267 420l-36-19 36-12v31M395 443l-31 6-5-26 36 20M168 376l15-16 24 18-39-2" stroke="#9400d3" stroke-linecap="round" stroke-linejoin="round" font-family="Ubuntu" font-size="11" stroke-width="1.00313"/><path d="M207 378l-24-18 22-12 2 30M124 295l25 12-14 17-11-29M171 340l-22-33 24-1-2 34M115 233l2-31 18 16-20 15M117 202l7-30 13 20-20 10" stroke="#9400d3" stroke-linecap="round" stroke-linejoin="round" font-family="Ubuntu" font-size="11" stroke-width="1.00313"/><path d="M117 202l20-10-2 26-18-16M364 449l-31 2 26-28 5 26M115 233h36l-5 28-31-28M333 451l-31-2 26-29 5 31M267 420l-24 12-12-31 36 19" stroke="#9400d3" stroke-linecap="round" stroke-linejoin="round" font-family="Ubuntu" font-size="11" stroke-width="1.00313"/><path d="M117 264l-2-31 31 28-29 3M302 449l-30-6 19-30 11 36M231 401l-16 16-8-39 24 23M124 295l-7-31 29-3-22 34M124 295l37-9-12 21-25-12M272 443l-29-11 24-12 5 23M135 324l14-17 22 33-36-16M135 324l36 16-21 11-15-27M243 432l-28-15 16-16 12 31" stroke="#9400d3" stroke-linecap="round" stroke-linejoin="round" font-family="Ubuntu" font-size="11" stroke-width="1.00313"/><path d="M150 351l21-11 12 20-33-9M215 417l-25-19 17-20 8 39M168 376l-18-25 33 9-15 16" stroke="#9400d3" stroke-linecap="round" stroke-linejoin="round" font-family="Ubuntu" font-size="11" stroke-width="1.00313"/><path d="M190 398l-22-22 39 2-17 20" stroke="#9400d3" stroke-linecap="round" stroke-linejoin="round" font-family="Ubuntu" font-size="11" stroke-width="1.00313"/><path d="M115 16v436h436V16H115" stroke-linecap="round" stroke-linejoin="round" font-family="Ubuntu" font-size="11" stroke-width="1.00313"/></g></svg>